<?xml version="1.0" encoding="UTF-8" standalone="no"?>
<!-- Created with Inkscape (http://www.inkscape.org/) -->

<svg
   xmlns:dc="http://purl.org/dc/elements/1.1/"
   xmlns:cc="http://creativecommons.org/ns#"
   xmlns:rdf="http://www.w3.org/1999/02/22-rdf-syntax-ns#"
   xmlns:svg="http://www.w3.org/2000/svg"
   xmlns="http://www.w3.org/2000/svg"
   xmlns:xlink="http://www.w3.org/1999/xlink"
   xmlns:sodipodi="http://sodipodi.sourceforge.net/DTD/sodipodi-0.dtd"
   xmlns:inkscape="http://www.inkscape.org/namespaces/inkscape"
   version="1.0"
   width="96"
   height="96"
   id="svg2408"
   inkscape:version="0.48.4 r9939"
   sodipodi:docname="agenda.svg">
  <sodipodi:namedview
     pagecolor="#ffffff"
     bordercolor="#666666"
     borderopacity="1"
     objecttolerance="10"
     gridtolerance="10"
     guidetolerance="10"
     inkscape:pageopacity="0"
     inkscape:pageshadow="2"
     inkscape:window-width="1680"
     inkscape:window-height="991"
     id="namedview96"
     showgrid="false"
     inkscape:zoom="7.1059987"
     inkscape:cx="34.471232"
     inkscape:cy="43.081867"
     inkscape:window-x="0"
     inkscape:window-y="-3"
     inkscape:window-maximized="1"
     inkscape:current-layer="svg2408" />
  <defs
     id="defs2410">
    <linearGradient
       id="linearGradient3757">
      <stop
         id="stop3759"
         style="stop-color:#c53636;stop-opacity:1"
         offset="0" />
      <stop
         id="stop3761"
         style="stop-color:#d42b2b;stop-opacity:1"
         offset="1" />
    </linearGradient>
    <linearGradient
       id="linearGradient3777">
      <stop
         id="stop3779"
         style="stop-color:#ffffff;stop-opacity:0"
         offset="0" />
      <stop
         id="stop3785"
         style="stop-color:#d7d7d7;stop-opacity:1"
         offset="0.50290233" />
      <stop
         id="stop3781"
         style="stop-color:#cccccc;stop-opacity:1"
         offset="0.76460928" />
      <stop
         id="stop3787"
         style="stop-color:#d7d7d7;stop-opacity:1"
         offset="0.9122979" />
      <stop
         id="stop3783"
         style="stop-color:#ffffff;stop-opacity:1"
         offset="1" />
    </linearGradient>
    <linearGradient
       x1="45.447727"
       y1="92.539597"
       x2="45.447727"
       y2="7.0165396"
       id="ButtonShadow"
       gradientUnits="userSpaceOnUse"
       gradientTransform="scale(1.0058652,0.994169)">
      <stop
         id="stop3750"
         style="stop-color:#000000;stop-opacity:1"
         offset="0" />
      <stop
         id="stop3752"
         style="stop-color:#000000;stop-opacity:0.58823532"
         offset="1" />
    </linearGradient>
    <linearGradient
       id="linearGradient3737">
      <stop
         id="stop3739"
         style="stop-color:#ffffff;stop-opacity:1"
         offset="0" />
      <stop
         id="stop3741"
         style="stop-color:#ffffff;stop-opacity:0"
         offset="1" />
    </linearGradient>
    <filter
       color-interpolation-filters="sRGB"
       id="filter3174">
      <feGaussianBlur
         id="feGaussianBlur3176"
         stdDeviation="1.71" />
    </filter>
    <linearGradient
       x1="36.357143"
       y1="6"
       x2="36.357143"
       y2="63.893143"
       id="linearGradient3188"
       xlink:href="#linearGradient3737"
       gradientUnits="userSpaceOnUse" />
    <filter
       x="-0.192"
       y="-0.192"
       width="1.3839999"
       height="1.3839999"
       color-interpolation-filters="sRGB"
       id="filter3794">
      <feGaussianBlur
         id="feGaussianBlur3796"
         stdDeviation="5.28" />
    </filter>
    <linearGradient
       x1="48"
       y1="20.220806"
       x2="48"
       y2="138.66119"
       id="linearGradient3613"
       xlink:href="#linearGradient3737"
       gradientUnits="userSpaceOnUse" />
    <radialGradient
       cx="48"
       cy="90.171875"
       r="42"
       fx="48"
       fy="90.171875"
       id="radialGradient3619"
       xlink:href="#linearGradient3737"
       gradientUnits="userSpaceOnUse"
       gradientTransform="matrix(1.1573129,0,0,0.99590774,-17.551021,0.19713193)" />
    <clipPath
       id="clipPath3613">
      <rect
         width="84"
         height="84"
         rx="6"
         ry="6"
         x="6"
         y="6"
         id="rect3615"
         style="fill:#ffffff;fill-opacity:1;fill-rule:nonzero;stroke:none" />
    </clipPath>
    <linearGradient
       x1="48"
       y1="90"
       x2="48"
       y2="5.9877172"
       id="linearGradient3617"
       xlink:href="#ButtonColor-0"
       gradientUnits="userSpaceOnUse" />
    <linearGradient
       x1="38.410439"
       y1="39.834473"
       x2="110.98586"
       y2="112.4099"
       id="linearGradient3185"
       xlink:href="#linearGradient3777"
       gradientUnits="userSpaceOnUse"
       gradientTransform="matrix(0.71186441,0,0,0.71186441,2.44068,2.440678)" />
    <linearGradient
       x1="58.650177"
       y1="122"
       x2="58.650177"
       y2="5.4252338"
       id="ButtonColor"
       gradientUnits="userSpaceOnUse"
       gradientTransform="matrix(1.0172414,0,0,1.0172414,-1.1034483,-1.1034483)">
      <stop
         id="stop3189"
         style="stop-color:#e4b31e;stop-opacity:1"
         offset="0" />
      <stop
         id="stop3191"
         style="stop-color:#ffef64;stop-opacity:1"
         offset="1" />
    </linearGradient>
    <clipPath
       id="clipPath3800">
      <path
         d="m 62,6 c -3.324,0 -6,2.676 -6,6 l 0,0.53125 C 56,8.9207 58.9207,6 62.53125,6 L 62,6 z m 71.46875,0 C 137.0793,6 140,8.9207 140,12.53125 L 140,12 c 0,-3.324 -2.676,-6 -6,-6 l -0.53125,0 z M 140,12.53125 c 0,36.73465 -3.54263,60.10471 -7.84375,69.9375 C 121.33994,87.4996 96.479512,90 62.53125,90 L 134,90 c 3.324,0 6,-2.676 6,-6 l 0,-71.46875 z M 62.53125,90 C 58.9207,89.9945 56,87.0793 56,83.46875 L 56,84 c 0,3.324 2.676,6 6,6 l 0.53125,0 z"
         inkscape:connector-curvature="0"
         id="path3802"
         style="fill:url(#linearGradient3804);fill-opacity:1;fill-rule:nonzero;stroke:none" />
    </clipPath>
    <linearGradient
       x1="48"
       y1="90"
       x2="48"
       y2="5.9877172"
       id="linearGradient3804"
       xlink:href="#ButtonColor"
       gradientUnits="userSpaceOnUse"
       gradientTransform="translate(50,0)" />
    <filter
       color-interpolation-filters="sRGB"
       id="filter3810">
      <feGaussianBlur
         id="feGaussianBlur3812"
         stdDeviation="1.2600071" />
    </filter>
    <linearGradient
       x1="82.08036"
       y1="82.290176"
       x2="59.611588"
       y2="59.821404"
       id="linearGradient3825"
       xlink:href="#linearGradient3737"
       gradientUnits="userSpaceOnUse" />
    <linearGradient
       x1="58.650177"
       y1="122"
       x2="58.650177"
       y2="5.4252338"
       id="ButtonColor-0"
       gradientUnits="userSpaceOnUse"
       gradientTransform="matrix(1.0172414,0,0,1.0172414,-1.1034483,-1.1034483)">
      <stop
         id="stop3189-4"
         style="stop-color:#f0f0f0;stop-opacity:1"
         offset="0" />
      <stop
         id="stop3191-8"
         style="stop-color:#ffffff;stop-opacity:1"
         offset="1" />
    </linearGradient>
    <linearGradient
       x1="49.057751"
       y1="36.02602"
       x2="49.057751"
       y2="6.0722966"
       id="linearGradient3763"
       xlink:href="#linearGradient3757"
       gradientUnits="userSpaceOnUse" />
    <linearGradient
       x1="46.784908"
       y1="32.026962"
       x2="46.784908"
       y2="68.028786"
       id="linearGradient3699"
       xlink:href="#linearGradient3737"
       gradientUnits="userSpaceOnUse" />
    <linearGradient
       x1="47.868935"
       y1="91.174545"
       x2="47.868935"
       y2="5.8992176"
       id="linearGradient3707"
       xlink:href="#ButtonShadow"
       gradientUnits="userSpaceOnUse" />
    <linearGradient
       x1="46.965103"
       y1="93.415817"
       x2="46.965103"
       y2="8.3638449"
       id="linearGradient3722"
       xlink:href="#ButtonShadow"
       gradientUnits="userSpaceOnUse"
       gradientTransform="translate(-1,-1)" />
    <linearGradient
       x1="46.965103"
       y1="93.415817"
       x2="46.965103"
       y2="8.3638449"
       id="linearGradient3736"
       xlink:href="#ButtonShadow"
       gradientUnits="userSpaceOnUse"
       gradientTransform="translate(-1,-1)" />
    <linearGradient
       x1="46.965103"
       y1="93.415817"
       x2="46.965103"
       y2="8.3638449"
       id="linearGradient3752"
       xlink:href="#ButtonShadow"
       gradientUnits="userSpaceOnUse"
       gradientTransform="translate(-1,-1)" />
    <linearGradient
       x1="46.965103"
       y1="93.415817"
       x2="46.965103"
       y2="8.3638449"
       id="linearGradient3760"
       xlink:href="#ButtonShadow"
       gradientUnits="userSpaceOnUse"
       gradientTransform="translate(-1,-1)" />
    <linearGradient
       inkscape:collect="always"
       xlink:href="#linearGradient3737"
       id="linearGradient3092"
       gradientUnits="userSpaceOnUse"
       x1="46.784908"
       y1="32.026962"
       x2="46.784908"
       y2="68.028786" />
    <radialGradient
       inkscape:collect="always"
       xlink:href="#linearGradient3737"
       id="radialGradient3095"
       gradientUnits="userSpaceOnUse"
       gradientTransform="matrix(1.1573129,0,0,0.99590774,-17.551021,0.19713193)"
       cx="48"
       cy="90.171875"
       fx="48"
       fy="90.171875"
       r="42" />
    <linearGradient
       inkscape:collect="always"
       xlink:href="#ButtonColor-0"
       id="linearGradient3098"
       gradientUnits="userSpaceOnUse"
       x1="48"
       y1="90"
       x2="48"
       y2="5.9877172" />
  </defs>
  <metadata
     id="metadata2413">
    <rdf:RDF>
      <cc:Work
         rdf:about="">
        <dc:format>image/svg+xml</dc:format>
        <dc:type
           rdf:resource="http://purl.org/dc/dcmitype/StillImage" />
      </cc:Work>
    </rdf:RDF>
  </metadata>
  <g
     id="layer2"
     style="display:none">
    <path
       d="M 11,7 C 7.676,7 5,9.676 5,13 l 0,73 c 0,3.324 2.676,6 6,6 l 74,0 c 3.324,0 6,-2.676 6,-6 L 91,13 C 91,9.676 88.324,7 85,7 l -15,0 0,2.5625 c 1.19379,0.692085 2,1.958291 2,3.4375 0,2.209139 -1.79086,4 -4,4 -2.20914,0 -4,-1.790861 -4,-4 0,-1.479209 0.80621,-2.745415 2,-3.4375 L 66,7 30,7 30,9.5625 c 1.19379,0.692085 2,1.958291 2,3.4375 0,2.209139 -1.79086,4 -4,4 -2.20914,0 -4,-1.790861 -4,-4 0,-1.479209 0.80621,-2.745415 2,-3.4375 L 26,7 11,7 z"
       inkscape:connector-curvature="0"
       id="rect3745"
       style="opacity:0.9;fill:url(#ButtonShadow);fill-opacity:1;fill-rule:nonzero;stroke:none;filter:url(#filter3174)" />
  </g>
  <path
     style="fill:url(#linearGradient3098);fill-opacity:1;fill-rule:nonzero;stroke:none"
     id="rect2419"
     inkscape:connector-curvature="0"
     d="M 12,6 C 8.676,6 6,8.676 6,12 l 0,72 c 0,5.716345 0.2836551,6 6,6 l 72,0 c 5.716345,0 6,0.138523 6,-6 L 90,12 C 90,8.676 87.324,6 84,6 l -14,0 0,2.5625 c 1.193791,0.6920851 2,1.958291 2,3.4375 0,2.209139 -1.790861,4 -4,4 -2.209139,0 -4,-1.790861 -4,-4 0,-1.479209 0.806209,-2.7454149 2,-3.4375 L 66,6 30,6 30,8.5625 c 1.193791,0.6920851 2,1.958291 2,3.4375 0,2.209139 -1.790861,4 -4,4 -2.209139,0 -4,-1.790861 -4,-4 0,-1.479209 0.806209,-2.7454149 2,-3.4375 L 26,6 z"
     sodipodi:nodetypes="ssssssssccsssccccsssccs" />
  <path
     style="fill:#cd3030;fill-opacity:1;fill-rule:nonzero;stroke:none"
     id="rect3839"
     inkscape:connector-curvature="0"
     d="M 12,6 C 6.0022027,6 6,5.8614766 6,12 l 0,24 84,0 0,-24 C 90,5.8614766 90.138523,6 84,6 l -14,0 0,2.5625 c 1.193791,0.6920851 2,1.958291 2,3.4375 0,2.209139 -1.790861,4 -4,4 -2.209139,0 -4,-1.790861 -4,-4 0,-1.479209 0.806209,-2.7454149 2,-3.4375 L 66,6 30,6 30,8.5625 c 1.193791,0.6920851 2,1.958291 2,3.4375 0,2.209139 -1.790861,4 -4,4 -2.209139,0 -4,-1.790861 -4,-4 0,-1.479209 0.806209,-2.7454149 2,-3.4375 L 26,6 z"
     sodipodi:nodetypes="ssccssccsssccccsssccs" />
  <g
     style="display:inline"
     id="g2751"
     transform="matrix(0.35049316,0,0,0.3538302,42.738451,15.822022)">
    <path
       style="font-size:4px;font-style:normal;font-variant:normal;font-weight:normal;font-stretch:normal;text-align:center;line-height:120.00000477%;writing-mode:lr-tb;text-anchor:middle;fill:#ffffff;fill-opacity:1;stroke:none;font-family:Sans;-inkscape-font-specification:Sans"
       id="text2434"
       inkscape:connector-curvature="0"
       d="m 64.127514,24.097733 c 0.1888,0.04037 0.335935,0.124351 0.441406,0.251954 0.106769,0.127605 0.160154,0.285157 0.160156,0.472656 -2e-6,0.287761 -0.09896,0.510417 -0.296875,0.667969 -0.197918,0.157552 -0.479168,0.236328 -0.84375,0.236328 -0.122396,0 -0.248698,-0.01237 -0.378906,-0.03711 -0.128907,-0.02344 -0.26237,-0.05924 -0.40039,-0.107422 l 0,-0.380859 c 0.109374,0.0638 0.229166,0.11198 0.359375,0.144531 0.130207,0.03255 0.266275,0.04883 0.408203,0.04883 0.247394,1e-6 0.435545,-0.04883 0.564453,-0.146484 0.130206,-0.09766 0.19531,-0.239583 0.195312,-0.425781 -2e-6,-0.171874 -0.06055,-0.305989 -0.18164,-0.402344 -0.119794,-0.09765 -0.287111,-0.146483 -0.501953,-0.146484 l -0.339844,0 0,-0.324219 0.355469,0 c 0.194009,2e-6 0.342446,-0.03841 0.445312,-0.115234 0.102863,-0.07812 0.154295,-0.190103 0.154297,-0.335938 -2e-6,-0.149737 -0.05339,-0.26432 -0.160156,-0.34375 -0.105471,-0.08073 -0.257163,-0.121091 -0.455078,-0.121094 -0.108074,3e-6 -0.22396,0.01172 -0.347657,0.03516 -0.123698,0.02344 -0.259766,0.0599 -0.408203,0.109375 l 0,-0.351563 c 0.149739,-0.04166 0.289713,-0.07291 0.419922,-0.09375 0.131509,-0.02083 0.255207,-0.03125 0.371094,-0.03125 0.299477,3e-6 0.536456,0.06836 0.710937,0.205078 0.174477,0.13542 0.261717,0.319013 0.261719,0.550781 -2e-6,0.161461 -0.04623,0.298179 -0.138672,0.410157 -0.09245,0.110679 -0.22396,0.187501 -0.394531,0.230468 m -2.400391,6.040235 0.644532,0 0,-2.224609 -0.701172,0.140625 0,-0.359375 0.697265,-0.140625 0.394532,0 0,2.583984 0.644531,0 0,0.332031 -1.679688,0 0,-0.332031 m 3.322266,-2.324219 c -0.203126,3e-6 -0.356121,0.100263 -0.458984,0.300782 -0.101564,0.19922 -0.152345,0.49935 -0.152344,0.90039 -1e-6,0.399741 0.05078,0.699871 0.152344,0.900391 0.102863,0.199219 0.255858,0.298828 0.458984,0.298828 0.204425,0 0.35742,-0.09961 0.458984,-0.298828 0.102863,-0.20052 0.154295,-0.50065 0.154297,-0.900391 -2e-6,-0.40104 -0.05143,-0.70117 -0.154297,-0.90039 -0.101564,-0.200519 -0.254559,-0.300779 -0.458984,-0.300782 m 0,-0.3125 c 0.326821,3e-6 0.57617,0.12956 0.748047,0.388672 0.173175,0.257815 0.259763,0.632815 0.259765,1.125 -2e-6,0.490887 -0.08659,0.865886 -0.259765,1.125 -0.171877,0.257813 -0.421226,0.386719 -0.748047,0.386719 -0.326824,0 -0.576824,-0.128906 -0.75,-0.386719 -0.171875,-0.259114 -0.257813,-0.634113 -0.257813,-1.125 0,-0.492185 0.08594,-0.867185 0.257813,-1.125 0.173176,-0.259112 0.423176,-0.388669 0.75,-0.388672 m -3.322266,7.436719 0.644532,0 0,-2.224609 -0.701172,0.140625 0,-0.359375 0.697265,-0.140625 0.394532,0 0,2.583984 0.644531,0 0,0.332032 -1.679688,0 0,-0.332032 m 2.378907,-2.583984 1.875,0 0,0.167969 -1.058594,2.748047 -0.41211,0 0.996094,-2.583985 -1.40039,0 0,-0.332031 m -2.107422,7.383984 1.376953,0 0,0.332032 -1.851563,0 0,-0.332032 c 0.149739,-0.154947 0.353515,-0.362629 0.611328,-0.623046 0.259114,-0.261718 0.421874,-0.430338 0.488282,-0.50586 0.1263,-0.141925 0.214191,-0.261717 0.263672,-0.359375 0.05078,-0.09896 0.07617,-0.195961 0.07617,-0.291015 -1e-6,-0.154946 -0.05469,-0.281248 -0.164062,-0.378907 -0.108074,-0.09765 -0.24935,-0.146481 -0.423828,-0.146484 -0.123699,3e-6 -0.254558,0.02149 -0.392578,0.06445 -0.13672,0.04297 -0.283204,0.108075 -0.439453,0.195313 l 0,-0.398438 c 0.158853,-0.0638 0.307291,-0.111976 0.445312,-0.144531 0.13802,-0.03255 0.264322,-0.04883 0.378906,-0.04883 0.302082,3e-6 0.542967,0.07552 0.722657,0.226562 0.179685,0.151044 0.269529,0.352867 0.269531,0.605469 -2e-6,0.119794 -0.02279,0.233726 -0.06836,0.341797 -0.04427,0.106772 -0.125653,0.233074 -0.24414,0.378906 -0.03255,0.03776 -0.13607,0.147137 -0.310547,0.328125 -0.174481,0.179688 -0.420574,0.431641 -0.738281,0.755859 m 3.291015,-2.240234 -0.996093,1.556641 0.996093,0 0,-1.556641 m -0.103515,-0.34375 0.496093,0 0,1.900391 0.416016,0 0,0.328125 -0.416016,0 0,0.6875 -0.392578,0 0,-0.6875 -1.316406,0 0,-0.38086 1.212891,-1.847656" />
    <path
       style="font-size:4px;font-style:normal;font-variant:normal;font-weight:normal;font-stretch:normal;text-align:center;line-height:120.00000477%;writing-mode:lr-tb;text-anchor:middle;fill:#ffffff;fill-opacity:1;stroke:none;font-family:Sans;-inkscape-font-specification:Sans"
       id="text2446"
       inkscape:connector-curvature="0"
       d="m 71.694389,23.041094 -0.996093,1.55664 0.996093,0 0,-1.55664 m -0.103515,-0.34375 0.496093,0 0,1.90039 0.416016,0 0,0.328125 -0.416016,0 0,0.6875 -0.392578,0 0,-0.6875 -1.316406,0 0,-0.380859 1.212891,-1.847656 m -2.185547,7.383984 0.644531,0 0,-2.224609 -0.701172,0.140625 0,-0.359375 0.697266,-0.140625 0.394531,0 0,2.583984 0.644531,0 0,0.332032 -1.679687,0 0,-0.332032 m 2.546875,0 0.644531,0 0,-2.224609 -0.701172,0.140625 0,-0.359375 0.697266,-0.140625 0.394531,0 0,2.583984 0.644531,0 0,0.332032 -1.679687,0 0,-0.332032 m -2.546875,4.800001 0.644531,0 0,-2.22461 -0.701172,0.140625 0,-0.359375 0.697266,-0.140625 0.394531,0 0,2.583985 0.644531,0 0,0.332031 -1.679687,0 0,-0.332031 m 3.322265,-1.052735 c -0.187501,2e-6 -0.335287,0.05013 -0.443359,0.150391 -0.106771,0.100261 -0.160157,0.238282 -0.160156,0.414062 -10e-7,0.175782 0.05339,0.313803 0.160156,0.414063 0.108072,0.100261 0.255858,0.150391 0.443359,0.15039 0.187499,10e-7 0.335285,-0.05013 0.44336,-0.15039 0.108071,-0.101562 0.162107,-0.239583 0.162109,-0.414063 -2e-6,-0.17578 -0.05404,-0.313801 -0.162109,-0.414062 -0.106773,-0.100259 -0.254559,-0.150389 -0.44336,-0.150391 m -0.394531,-0.167969 c -0.169271,-0.04167 -0.301433,-0.120441 -0.396484,-0.236328 -0.09375,-0.115883 -0.140625,-0.257159 -0.140625,-0.423828 0,-0.23307 0.08268,-0.417315 0.248047,-0.552734 0.166666,-0.135414 0.39453,-0.203122 0.683593,-0.203125 0.290363,3e-6 0.518228,0.06771 0.683594,0.203125 0.165363,0.135419 0.248045,0.319664 0.248047,0.552734 -2e-6,0.166669 -0.04753,0.307945 -0.142578,0.423828 -0.09375,0.115887 -0.224611,0.194663 -0.392578,0.236328 0.190102,0.04427 0.337888,0.130861 0.443359,0.259766 0.106769,0.128907 0.160154,0.286459 0.160156,0.472656 -2e-6,0.282553 -0.08659,0.49935 -0.259765,0.650391 C 73.29595,35.19448 73.049205,35.27 72.727592,35.27 c -0.321615,0 -0.569011,-0.07552 -0.742187,-0.226562 -0.171875,-0.151041 -0.257813,-0.367838 -0.257813,-0.650391 0,-0.186197 0.05339,-0.343749 0.160157,-0.472656 0.10677,-0.128905 0.255207,-0.215493 0.445312,-0.259766 M 72.18853,33.037579 c -10e-7,0.151043 0.04687,0.268882 0.140625,0.353515 0.09505,0.08464 0.227863,0.126955 0.398437,0.126953 0.16927,2e-6 0.301431,-0.04232 0.396485,-0.126953 0.09635,-0.08463 0.144529,-0.202472 0.144531,-0.353515 -2e-6,-0.15104 -0.04818,-0.268878 -0.144531,-0.353516 -0.09505,-0.08463 -0.227215,-0.126951 -0.396485,-0.126953 -0.170574,2e-6 -0.303386,0.04232 -0.398437,0.126953 -0.09375,0.08464 -0.140626,0.202476 -0.140625,0.353516 m -2.511719,6.64375 1.376953,0 0,0.332031 -1.851562,0 0,-0.332031 c 0.149739,-0.154948 0.353515,-0.36263 0.611328,-0.623047 0.259113,-0.261718 0.421874,-0.430337 0.488281,-0.505859 0.126301,-0.141926 0.214191,-0.261718 0.263672,-0.359375 0.05078,-0.09896 0.07617,-0.195962 0.07617,-0.291016 -2e-6,-0.154946 -0.05469,-0.281248 -0.164063,-0.378906 -0.108074,-0.09765 -0.24935,-0.146482 -0.423828,-0.146485 -0.123699,3e-6 -0.254558,0.02149 -0.392578,0.06445 -0.136719,0.04297 -0.283203,0.108076 -0.439453,0.195313 l 0,-0.398438 c 0.158854,-0.0638 0.307291,-0.111976 0.445313,-0.144531 0.13802,-0.03255 0.264321,-0.04883 0.378906,-0.04883 0.302082,3e-6 0.542967,0.07552 0.722656,0.226563 0.179686,0.151044 0.269529,0.352866 0.269531,0.605468 -2e-6,0.119794 -0.02279,0.233726 -0.06836,0.341797 -0.04427,0.106773 -0.125653,0.233075 -0.244141,0.378906 -0.03255,0.03776 -0.136069,0.147137 -0.310547,0.328125 -0.17448,0.179689 -0.420574,0.431642 -0.738281,0.75586 m 2.210938,-2.583985 1.548828,0 0,0.332032 -1.1875,0 0,0.714843 c 0.05729,-0.01953 0.114582,-0.03385 0.171875,-0.04297 0.05729,-0.01041 0.114582,-0.01562 0.171875,-0.01563 0.325519,2e-6 0.583331,0.08919 0.773437,0.267578 0.190102,0.178387 0.285154,0.419923 0.285157,0.724609 -3e-6,0.313803 -0.09766,0.557943 -0.292969,0.732422 -0.195314,0.173177 -0.470705,0.259766 -0.826172,0.259766 -0.122397,0 -0.247397,-0.01042 -0.375,-0.03125 -0.126303,-0.02083 -0.257162,-0.05208 -0.392578,-0.09375 l 0,-0.396485 c 0.117187,0.0638 0.238281,0.111329 0.363281,0.142578 0.124999,0.03125 0.257161,0.04688 0.396484,0.04687 0.22526,10e-7 0.403645,-0.05924 0.535157,-0.177734 0.131508,-0.118489 0.197264,-0.279296 0.197265,-0.482422 -10e-7,-0.203124 -0.06576,-0.363931 -0.197265,-0.482422 -0.131512,-0.118488 -0.309897,-0.177733 -0.535157,-0.177734 -0.105469,1e-6 -0.210938,0.01172 -0.316406,0.03516 -0.104167,0.02344 -0.210938,0.0599 -0.320312,0.109375 l 0,-1.464844" />
    <path
       style="font-size:4px;font-style:normal;font-variant:normal;font-weight:normal;font-stretch:normal;text-align:center;line-height:120.00000477%;writing-mode:lr-tb;text-anchor:middle;fill:#ffffff;fill-opacity:1;stroke:none;font-family:Sans;-inkscape-font-specification:Sans"
       id="text2456"
       inkscape:connector-curvature="0"
       d="m 78.257362,22.697344 1.548828,0 0,0.332031 -1.1875,0 0,0.714844 c 0.05729,-0.01953 0.114583,-0.03385 0.171875,-0.04297 0.05729,-0.01042 0.114583,-0.01562 0.171875,-0.01563 0.32552,2e-6 0.583332,0.08919 0.773438,0.267578 0.190102,0.178387 0.285154,0.419923 0.285156,0.72461 -2e-6,0.313802 -0.09766,0.557943 -0.292969,0.732421 C 79.532751,25.583412 79.257361,25.67 78.901894,25.67 c -0.122397,0 -0.247397,-0.01042 -0.375,-0.03125 -0.126303,-0.02083 -0.257162,-0.05208 -0.392579,-0.09375 l 0,-0.396484 c 0.117188,0.0638 0.238281,0.111328 0.363282,0.142578 0.124999,0.03125 0.25716,0.04687 0.396484,0.04687 0.225259,0 0.403644,-0.05925 0.535156,-0.177735 0.131509,-0.118489 0.197264,-0.279296 0.197266,-0.482421 -2e-6,-0.203124 -0.06576,-0.363931 -0.197266,-0.482422 -0.131512,-0.118488 -0.309897,-0.177733 -0.535156,-0.177735 -0.10547,2e-6 -0.210938,0.01172 -0.316406,0.03516 -0.104167,0.02344 -0.210938,0.0599 -0.320313,0.109375 l 0,-1.464844 m -1.208984,7.383984 0.644531,0 0,-2.224609 -0.701172,0.140625 0,-0.359375 0.697266,-0.140625 0.394531,0 0,2.583984 0.644531,0 0,0.332032 -1.679687,0 0,-0.332032 m 2.818359,0 1.376953,0 0,0.332032 -1.851562,0 0,-0.332032 c 0.149739,-0.154947 0.353515,-0.362629 0.611328,-0.623046 0.259114,-0.261718 0.421874,-0.430338 0.488281,-0.50586 0.126301,-0.141925 0.214191,-0.261717 0.263672,-0.359375 0.05078,-0.09896 0.07617,-0.195961 0.07617,-0.291015 -2e-6,-0.154946 -0.05469,-0.281248 -0.164062,-0.378907 -0.108075,-0.09765 -0.249351,-0.146481 -0.423829,-0.146484 -0.123698,3e-6 -0.254558,0.02149 -0.392578,0.06445 -0.136719,0.04297 -0.283203,0.108075 -0.439453,0.195313 l 0,-0.398438 c 0.158854,-0.0638 0.307291,-0.111976 0.445313,-0.144531 0.13802,-0.03255 0.264322,-0.04883 0.378906,-0.04883 0.302082,3e-6 0.542967,0.07552 0.722656,0.226562 0.179686,0.151044 0.269529,0.352867 0.269531,0.605469 -2e-6,0.119794 -0.02279,0.233726 -0.06836,0.341797 -0.04427,0.106772 -0.125653,0.233074 -0.244141,0.378906 -0.03255,0.03776 -0.136069,0.147137 -0.310546,0.328125 -0.174481,0.179688 -0.420574,0.431641 -0.738282,0.755859 m -2.818359,4.800001 0.644531,0 0,-2.22461 -0.701172,0.140625 0,-0.359375 0.697266,-0.140625 0.394531,0 0,2.583985 0.644531,0 0,0.332031 -1.679687,0 0,-0.332031 m 2.490234,0.271484 0,-0.359375 c 0.09896,0.04687 0.199218,0.08268 0.300782,0.107422 0.101561,0.02474 0.201171,0.03711 0.298828,0.03711 0.260415,0 0.458983,-0.08724 0.595703,-0.261719 0.138019,-0.17578 0.216795,-0.442056 0.236328,-0.798828 -0.07552,0.111981 -0.171226,0.197918 -0.287109,0.257813 -0.115887,0.0599 -0.244142,0.08984 -0.384766,0.08984 -0.291668,1e-6 -0.522787,-0.08789 -0.693359,-0.263672 -0.169272,-0.177082 -0.253907,-0.418618 -0.253907,-0.72461 0,-0.299477 0.08854,-0.539711 0.265625,-0.720703 0.177083,-0.180986 0.41276,-0.271481 0.707032,-0.271484 0.337238,3e-6 0.594399,0.12956 0.771484,0.388672 0.178383,0.257815 0.267576,0.632814 0.267578,1.125 -2e-6,0.459636 -0.109377,0.826823 -0.328125,1.101562 C 80.817256,35.133282 80.524288,35.27 80.1558,35.27 c -0.09896,0 -0.19922,-0.0098 -0.300781,-0.0293 -0.101564,-0.01953 -0.207032,-0.04883 -0.316407,-0.08789 m 0.785157,-1.236328 c 0.177082,10e-7 0.317055,-0.06055 0.419921,-0.181641 0.104165,-0.121092 0.156249,-0.287107 0.15625,-0.498047 -10e-7,-0.209633 -0.05209,-0.374997 -0.15625,-0.496093 -0.102866,-0.122394 -0.242839,-0.183592 -0.419921,-0.183594 -0.177085,2e-6 -0.31771,0.0612 -0.421875,0.183594 -0.102866,0.121096 -0.154298,0.28646 -0.154297,0.496093 -10e-7,0.21094 0.05143,0.376955 0.154297,0.498047 0.104165,0.121095 0.24479,0.181642 0.421875,0.181641 m -3.003907,5.764844 1.376953,0 0,0.332031 -1.851562,0 0,-0.332031 c 0.149739,-0.154948 0.353515,-0.36263 0.611328,-0.623047 0.259114,-0.261718 0.421874,-0.430337 0.488281,-0.505859 0.126301,-0.141926 0.214191,-0.261718 0.263672,-0.359375 0.05078,-0.09896 0.07617,-0.195962 0.07617,-0.291016 -2e-6,-0.154946 -0.05469,-0.281248 -0.164062,-0.378906 -0.108075,-0.09765 -0.249351,-0.146482 -0.423829,-0.146485 -0.123698,3e-6 -0.254558,0.02149 -0.392578,0.06445 -0.136719,0.04297 -0.283203,0.108076 -0.439453,0.195313 l 0,-0.398438 c 0.158854,-0.0638 0.307291,-0.111976 0.445313,-0.144531 0.13802,-0.03255 0.264322,-0.04883 0.378906,-0.04883 0.302082,3e-6 0.542967,0.07552 0.722656,0.226563 0.179686,0.151044 0.269529,0.352866 0.269531,0.605468 -2e-6,0.119794 -0.02279,0.233726 -0.06836,0.341797 -0.04427,0.106773 -0.125653,0.233075 -0.244141,0.378906 -0.03255,0.03776 -0.136069,0.147137 -0.310546,0.328125 -0.174481,0.179689 -0.420574,0.431642 -0.738282,0.75586 m 3.09961,-1.283203 c -0.177085,1e-6 -0.31771,0.06055 -0.421875,0.18164 -0.102866,0.121095 -0.154298,0.287111 -0.154297,0.498047 -1e-6,0.209636 0.05143,0.375652 0.154297,0.498047 0.104165,0.121094 0.24479,0.181641 0.421875,0.181641 0.177082,0 0.317055,-0.06055 0.419922,-0.181641 0.104164,-0.122395 0.156248,-0.288411 0.15625,-0.498047 -2e-6,-0.210936 -0.05209,-0.376952 -0.15625,-0.498047 -0.102867,-0.121092 -0.24284,-0.181639 -0.419922,-0.18164 m 0.783203,-1.236328 0,0.359375 c -0.09896,-0.04687 -0.199221,-0.08268 -0.300781,-0.107422 -0.100263,-0.02474 -0.199872,-0.03711 -0.298829,-0.03711 -0.260417,3e-6 -0.459636,0.08789 -0.597656,0.263672 -0.136719,0.175784 -0.214844,0.441408 -0.234375,0.796875 0.07682,-0.113279 0.173176,-0.199868 0.289063,-0.259765 0.115884,-0.0612 0.243488,-0.09179 0.382812,-0.0918 0.292967,2e-6 0.524087,0.08919 0.69336,0.267578 0.17057,0.177085 0.255857,0.418621 0.255859,0.724609 -2e-6,0.29948 -0.08854,0.539714 -0.265625,0.720703 -0.177085,0.18099 -0.412762,0.271485 -0.707031,0.271485 -0.337241,0 -0.595053,-0.128907 -0.773438,-0.386719 -0.178386,-0.259114 -0.267578,-0.634114 -0.267578,-1.125 0,-0.460936 0.109375,-0.828123 0.328125,-1.101563 0.218749,-0.274736 0.512369,-0.412106 0.880859,-0.412109 0.09896,3e-6 0.198567,0.0098 0.298829,0.0293 0.10156,0.01953 0.207029,0.04883 0.316406,0.08789" />
    <path
       style="font-size:4px;font-style:normal;font-variant:normal;font-weight:normal;font-stretch:normal;text-align:center;line-height:120.00000477%;writing-mode:lr-tb;text-anchor:middle;fill:#ffffff;fill-opacity:1;stroke:none;font-family:Sans;-inkscape-font-specification:Sans"
       id="text2466"
       inkscape:connector-curvature="0"
       d="m 86.806656,24.054766 c -0.177085,10e-7 -0.317709,0.06055 -0.421875,0.18164 -0.102865,0.121095 -0.154298,0.287111 -0.154297,0.498047 -10e-7,0.209636 0.05143,0.375652 0.154297,0.498047 0.104166,0.121094 0.24479,0.181641 0.421875,0.181641 0.177082,0 0.317056,-0.06055 0.419922,-0.181641 0.104165,-0.122395 0.156248,-0.288411 0.15625,-0.498047 -2e-6,-0.210936 -0.05209,-0.376952 -0.15625,-0.498047 -0.102866,-0.121092 -0.24284,-0.181639 -0.419922,-0.18164 m 0.783203,-1.236328 0,0.359375 c -0.09896,-0.04687 -0.199221,-0.08268 -0.300781,-0.107422 -0.100262,-0.02474 -0.199872,-0.03711 -0.298828,-0.03711 -0.260418,3e-6 -0.459637,0.08789 -0.597657,0.263672 -0.136719,0.175784 -0.214844,0.441408 -0.234375,0.796875 0.07682,-0.113279 0.173177,-0.199868 0.289063,-0.259765 0.115884,-0.0612 0.243488,-0.0918 0.382812,-0.0918 0.292967,2e-6 0.524087,0.08919 0.69336,0.267578 0.17057,0.177085 0.255857,0.418621 0.255859,0.724609 -2e-6,0.29948 -0.08854,0.539714 -0.265625,0.720703 -0.177085,0.18099 -0.412762,0.271485 -0.707031,0.271485 -0.337241,0 -0.595053,-0.128906 -0.773438,-0.386719 -0.178385,-0.259114 -0.267578,-0.634114 -0.267578,-1.125 0,-0.460936 0.109375,-0.828123 0.328125,-1.101563 0.218749,-0.274736 0.512369,-0.412106 0.88086,-0.412109 0.09896,3e-6 0.198566,0.0098 0.298828,0.0293 0.10156,0.01953 0.207029,0.04883 0.316406,0.08789 m -2.880859,7.319531 0.644531,0 0,-2.224609 -0.701172,0.140625 0,-0.359375 0.697266,-0.140625 0.394531,0 0,2.583984 0.644531,0 0,0.332031 -1.679687,0 0,-0.332031 m 3.673828,-1.240234 c 0.1888,0.04037 0.335935,0.12435 0.441406,0.251953 0.106769,0.127605 0.160154,0.285157 0.160156,0.472656 -2e-6,0.287761 -0.09896,0.510417 -0.296875,0.667969 -0.197918,0.157552 -0.479168,0.236328 -0.84375,0.236328 -0.122397,0 -0.248698,-0.01237 -0.378906,-0.03711 -0.128907,-0.02344 -0.26237,-0.05925 -0.400391,-0.107422 l 0,-0.38086 c 0.109375,0.0638 0.229167,0.11198 0.359375,0.144532 0.130208,0.03255 0.266275,0.04883 0.408204,0.04883 0.247394,0 0.435545,-0.04883 0.564453,-0.146485 0.130206,-0.09765 0.19531,-0.239582 0.195312,-0.425781 -2e-6,-0.171874 -0.06055,-0.305988 -0.18164,-0.402344 -0.119794,-0.09765 -0.287111,-0.146483 -0.501954,-0.146484 l -0.339843,0 0,-0.324219 0.355468,0 c 0.194009,2e-6 0.342447,-0.03841 0.445313,-0.115234 0.102863,-0.07812 0.154295,-0.190102 0.154297,-0.335938 -2e-6,-0.149737 -0.05339,-0.26432 -0.160156,-0.34375 -0.105471,-0.08073 -0.257163,-0.121091 -0.455079,-0.121093 -0.108074,2e-6 -0.223959,0.01172 -0.347656,0.03516 -0.123698,0.02344 -0.259766,0.0599 -0.408203,0.109375 l 0,-0.351563 c 0.149739,-0.04166 0.289713,-0.07291 0.419922,-0.09375 0.131509,-0.02083 0.255207,-0.03125 0.371094,-0.03125 0.299477,3e-6 0.536456,0.06836 0.710937,0.205078 0.174477,0.13542 0.261717,0.319013 0.261719,0.550782 -2e-6,0.16146 -0.04623,0.298179 -0.138672,0.410156 -0.09245,0.110679 -0.22396,0.187502 -0.394531,0.230469 m -3.402344,6.040234 1.376953,0 0,0.332031 -1.851562,0 0,-0.332031 c 0.149739,-0.154947 0.353515,-0.362629 0.611328,-0.623047 0.259113,-0.261717 0.421873,-0.430337 0.488281,-0.505859 0.126301,-0.141926 0.214191,-0.261717 0.263672,-0.359375 0.05078,-0.09896 0.07617,-0.195962 0.07617,-0.291016 -2e-6,-0.154945 -0.05469,-0.281247 -0.164063,-0.378906 -0.108074,-0.09765 -0.24935,-0.146482 -0.423828,-0.146484 -0.123699,2e-6 -0.254558,0.02149 -0.392578,0.06445 -0.136719,0.04297 -0.283204,0.108075 -0.439453,0.195312 l 0,-0.398437 c 0.158854,-0.0638 0.307291,-0.111976 0.445312,-0.144531 0.13802,-0.03255 0.264322,-0.04883 0.378907,-0.04883 0.302082,3e-6 0.542967,0.07552 0.722656,0.226563 0.179685,0.151044 0.269529,0.352867 0.269531,0.605469 -2e-6,0.119793 -0.02279,0.233726 -0.06836,0.341797 -0.04427,0.106772 -0.125653,0.233074 -0.244141,0.378906 -0.03255,0.03776 -0.136069,0.147137 -0.310547,0.328125 -0.17448,0.179688 -0.420574,0.431641 -0.738281,0.755859 m 3.050781,-2.324219 c -0.203126,3e-6 -0.35612,0.100263 -0.458984,0.300782 -0.101563,0.199221 -0.152345,0.499351 -0.152344,0.90039 -10e-7,0.399741 0.05078,0.699871 0.152344,0.900391 0.102864,0.199219 0.255858,0.298828 0.458984,0.298828 0.204426,0 0.357421,-0.09961 0.458985,-0.298828 0.102862,-0.20052 0.154295,-0.50065 0.154297,-0.900391 -2e-6,-0.401039 -0.05143,-0.701169 -0.154297,-0.90039 -0.101564,-0.200519 -0.254559,-0.300779 -0.458985,-0.300782 m 0,-0.3125 c 0.326822,3e-6 0.57617,0.129561 0.748047,0.388672 0.173175,0.257815 0.259763,0.632815 0.259766,1.125 -3e-6,0.490887 -0.08659,0.865886 -0.259766,1.125 -0.171877,0.257813 -0.421225,0.386719 -0.748047,0.386719 -0.326824,0 -0.576823,-0.128906 -0.75,-0.386719 -0.171875,-0.259114 -0.257813,-0.634113 -0.257812,-1.125 -10e-7,-0.492185 0.08594,-0.867185 0.257812,-1.125 0.173177,-0.259111 0.423176,-0.388669 0.75,-0.388672 m -3.050781,7.436719 1.376953,0 0,0.332032 -1.851562,0 0,-0.332032 c 0.149739,-0.154947 0.353515,-0.362629 0.611328,-0.623046 0.259113,-0.261718 0.421873,-0.430338 0.488281,-0.50586 0.126301,-0.141925 0.214191,-0.261717 0.263672,-0.359375 0.05078,-0.09896 0.07617,-0.195961 0.07617,-0.291015 -2e-6,-0.154946 -0.05469,-0.281248 -0.164063,-0.378907 -0.108074,-0.09765 -0.24935,-0.146481 -0.423828,-0.146484 -0.123699,3e-6 -0.254558,0.02149 -0.392578,0.06445 -0.136719,0.04297 -0.283204,0.108075 -0.439453,0.195313 l 0,-0.398438 c 0.158854,-0.0638 0.307291,-0.111976 0.445312,-0.144531 0.13802,-0.03255 0.264322,-0.04883 0.378907,-0.04883 0.302082,3e-6 0.542967,0.07552 0.722656,0.226562 0.179685,0.151044 0.269529,0.352867 0.269531,0.605469 -2e-6,0.119794 -0.02279,0.233726 -0.06836,0.341797 -0.04427,0.106772 -0.125653,0.233074 -0.244141,0.378906 -0.03255,0.03776 -0.136069,0.147137 -0.310547,0.328125 -0.17448,0.179688 -0.420574,0.431641 -0.738281,0.755859 m 2.107422,-2.583984 1.875,0 0,0.167969 -1.058594,2.748047 -0.412109,0 0.996094,-2.583985 -1.400391,0 0,-0.332031" />
    <path
       style="font-size:4px;font-style:normal;font-variant:normal;font-weight:normal;font-stretch:normal;text-align:center;line-height:120.00000477%;writing-mode:lr-tb;text-anchor:middle;fill:#ffffff;fill-opacity:1;stroke:none;font-family:Sans;-inkscape-font-specification:Sans"
       id="text2476"
       inkscape:connector-curvature="0"
       d="m 93.447746,22.697344 1.875,0 0,0.167969 -1.058593,2.748046 -0.41211,0 0.996094,-2.583984 -1.400391,0 0,-0.332031 m -1.105468,7.383984 0.644531,0 0,-2.224609 -0.701172,0.140625 0,-0.359375 0.697266,-0.140625 0.394531,0 0,2.583984 0.644531,0 0,0.332032 -1.679687,0 0,-0.332032 m 3.5625,-2.240234 -0.996094,1.556641 0.996094,0 0,-1.556641 m -0.103516,-0.34375 0.496094,0 0,1.900391 0.416015,0 0,0.328125 -0.416015,0 0,0.6875 -0.392578,0 0,-0.6875 -1.316407,0 0,-0.38086 1.212891,-1.847656 m -3.1875,7.383985 1.376953,0 0,0.332031 -1.851562,0 0,-0.332031 c 0.149739,-0.154948 0.353515,-0.36263 0.611328,-0.623047 0.259113,-0.261718 0.421873,-0.430337 0.488281,-0.50586 0.1263,-0.141925 0.214191,-0.261717 0.263672,-0.359375 0.05078,-0.09896 0.07617,-0.195961 0.07617,-0.291015 -2e-6,-0.154946 -0.05469,-0.281248 -0.164063,-0.378907 -0.108074,-0.09765 -0.24935,-0.146481 -0.423828,-0.146484 -0.123699,3e-6 -0.254558,0.02149 -0.392578,0.06445 -0.136719,0.04297 -0.283204,0.108076 -0.439453,0.195313 l 0,-0.398438 c 0.158853,-0.0638 0.307291,-0.111976 0.445312,-0.144531 0.13802,-0.03255 0.264322,-0.04883 0.378907,-0.04883 0.302081,3e-6 0.542967,0.07552 0.722656,0.226562 0.179685,0.151045 0.269529,0.352867 0.269531,0.605469 -2e-6,0.119794 -0.02279,0.233726 -0.06836,0.341797 -0.04427,0.106772 -0.125653,0.233074 -0.244141,0.378906 -0.03255,0.03776 -0.136069,0.147137 -0.310547,0.328125 -0.17448,0.179689 -0.420574,0.431641 -0.738281,0.75586 m 2.275391,0 0.644531,0 0,-2.22461 -0.701172,0.140625 0,-0.359375 0.697266,-0.140625 0.394531,0 0,2.583985 0.644531,0 0,0.332031 -1.679687,0 0,-0.332031 m -2.275391,4.8 1.376953,0 0,0.332031 -1.851562,0 0,-0.332031 c 0.149739,-0.154948 0.353515,-0.36263 0.611328,-0.623047 0.259113,-0.261718 0.421873,-0.430337 0.488281,-0.505859 0.1263,-0.141926 0.214191,-0.261718 0.263672,-0.359375 0.05078,-0.09896 0.07617,-0.195962 0.07617,-0.291016 -2e-6,-0.154946 -0.05469,-0.281248 -0.164063,-0.378906 -0.108074,-0.09765 -0.24935,-0.146482 -0.423828,-0.146485 -0.123699,3e-6 -0.254558,0.02149 -0.392578,0.06445 -0.136719,0.04297 -0.283204,0.108076 -0.439453,0.195313 l 0,-0.398438 c 0.158853,-0.0638 0.307291,-0.111976 0.445312,-0.144531 0.13802,-0.03255 0.264322,-0.04883 0.378907,-0.04883 0.302081,3e-6 0.542967,0.07552 0.722656,0.226563 0.179685,0.151044 0.269529,0.352866 0.269531,0.605468 -2e-6,0.119794 -0.02279,0.233726 -0.06836,0.341797 -0.04427,0.106773 -0.125653,0.233075 -0.244141,0.378906 -0.03255,0.03776 -0.136069,0.147137 -0.310547,0.328125 -0.17448,0.179689 -0.420574,0.431642 -0.738281,0.75586 m 3.050781,-1.052735 c -0.187501,2e-6 -0.335287,0.05013 -0.443359,0.150391 -0.106772,0.100262 -0.160157,0.238282 -0.160156,0.414063 -10e-7,0.175781 0.05338,0.313802 0.160156,0.414062 0.108072,0.100261 0.255858,0.150391 0.443359,0.150391 0.187499,0 0.335285,-0.05013 0.44336,-0.150391 0.108071,-0.101562 0.162107,-0.239583 0.162109,-0.414062 -2e-6,-0.175781 -0.05404,-0.313801 -0.162109,-0.414063 -0.106773,-0.100259 -0.254559,-0.150389 -0.44336,-0.150391 m -0.394531,-0.167968 c -0.169272,-0.04166 -0.301433,-0.120441 -0.396484,-0.236328 -0.09375,-0.115884 -0.140626,-0.25716 -0.140625,-0.423829 -10e-7,-0.23307 0.08268,-0.417315 0.248046,-0.552734 0.166666,-0.135414 0.394531,-0.203122 0.683594,-0.203125 0.290363,3e-6 0.518228,0.06771 0.683594,0.203125 0.165362,0.135419 0.248045,0.319664 0.248047,0.552734 -2e-6,0.166669 -0.04753,0.307945 -0.142578,0.423829 -0.09375,0.115887 -0.224612,0.194663 -0.392578,0.236328 0.190102,0.04427 0.337888,0.13086 0.443359,0.259765 0.106769,0.128908 0.160154,0.28646 0.160156,0.472657 -2e-6,0.282552 -0.08659,0.499349 -0.259765,0.65039 -0.171877,0.151042 -0.418622,0.226563 -0.740235,0.226563 -0.321615,0 -0.569011,-0.07552 -0.742187,-0.226563 -0.171876,-0.151041 -0.257813,-0.367838 -0.257813,-0.65039 0,-0.186197 0.05339,-0.343749 0.160156,-0.472657 0.106771,-0.128905 0.255208,-0.215493 0.445313,-0.259765 m -0.144531,-0.623047 c -10e-7,0.151043 0.04687,0.268882 0.140625,0.353515 0.09505,0.08464 0.227863,0.126955 0.398437,0.126954 0.16927,10e-7 0.301431,-0.04232 0.396485,-0.126954 0.09635,-0.08463 0.144529,-0.202472 0.144531,-0.353515 -2e-6,-0.15104 -0.04818,-0.268878 -0.144531,-0.353516 -0.09505,-0.08463 -0.227215,-0.12695 -0.396485,-0.126953 -0.170574,3e-6 -0.303386,0.04232 -0.398437,0.126953 -0.09375,0.08464 -0.140626,0.202476 -0.140625,0.353516" />
    <path
       style="font-size:4px;font-style:normal;font-variant:normal;font-weight:normal;font-stretch:normal;text-align:center;line-height:120.00000477%;writing-mode:lr-tb;text-anchor:middle;fill:#ffffff;fill-opacity:1;stroke:none;font-family:Sans;-inkscape-font-specification:Sans"
       id="text2486"
       inkscape:connector-curvature="0"
       d="m 101.29781,20.481327 0.64453,0 0,-2.224609 -0.70117,0.140625 0,-0.359375 0.69727,-0.140625 0.39453,0 0,2.583984 0.64453,0 0,0.332031 -1.67969,0 0,-0.332031 m 0.77539,3.747266 c -0.1875,1e-6 -0.33528,0.05013 -0.44336,0.15039 -0.10677,0.100262 -0.16015,0.238283 -0.16015,0.414063 0,0.175782 0.0534,0.313803 0.16015,0.414062 0.10808,0.100261 0.25586,0.150391 0.44336,0.150391 0.1875,0 0.33529,-0.05013 0.44336,-0.150391 0.10807,-0.101561 0.16211,-0.239582 0.16211,-0.414062 0,-0.17578 -0.054,-0.313801 -0.16211,-0.414063 -0.10677,-0.100259 -0.25456,-0.150389 -0.44336,-0.15039 m -0.39453,-0.167969 c -0.16927,-0.04167 -0.30143,-0.120441 -0.39648,-0.236328 -0.0937,-0.115884 -0.14063,-0.257159 -0.14063,-0.423828 0,-0.233071 0.0827,-0.417315 0.24805,-0.552735 0.16667,-0.135413 0.39453,-0.203122 0.68359,-0.203125 0.29037,3e-6 0.51823,0.06771 0.6836,0.203125 0.16536,0.13542 0.24804,0.319664 0.24804,0.552735 0,0.166669 -0.0475,0.307944 -0.14257,0.423828 -0.0938,0.115887 -0.22461,0.194663 -0.39258,0.236328 0.1901,0.04427 0.33789,0.130861 0.44336,0.259766 0.10677,0.128907 0.16015,0.286459 0.16015,0.472656 0,0.282553 -0.0866,0.499349 -0.25976,0.650391 -0.17188,0.151041 -0.41862,0.226562 -0.74024,0.226562 -0.32161,0 -0.56901,-0.07552 -0.74218,-0.226562 -0.17188,-0.151042 -0.25782,-0.367838 -0.25782,-0.650391 0,-0.186197 0.0534,-0.343749 0.16016,-0.472656 0.10677,-0.128905 0.25521,-0.215494 0.44531,-0.259766 m -0.14453,-0.623047 c 0,0.151044 0.0469,0.268882 0.14063,0.353516 0.0951,0.08464 0.22786,0.126955 0.39843,0.126953 0.16927,2e-6 0.30143,-0.04232 0.39649,-0.126953 0.0964,-0.08463 0.14453,-0.202472 0.14453,-0.353516 0,-0.151039 -0.0482,-0.268878 -0.14453,-0.353515 -0.0951,-0.08463 -0.22722,-0.126951 -0.39649,-0.126954 -0.17057,3e-6 -0.30338,0.04232 -0.39843,0.126954 -0.0937,0.08464 -0.14063,0.202476 -0.14063,0.353515 m -1.50976,6.64375 0.64453,0 0,-2.224609 -0.701175,0.140625 0,-0.359375 0.697265,-0.140625 0.39453,0 0,2.583984 0.64453,0 0,0.332032 -1.67968,0 0,-0.332032 m 2.48242,-2.583984 1.54883,0 0,0.332031 -1.1875,0 0,0.714844 c 0.0573,-0.01953 0.11458,-0.03385 0.17187,-0.04297 0.0573,-0.01041 0.11458,-0.01562 0.17188,-0.01563 0.32552,2e-6 0.58333,0.0892 0.77343,0.267578 0.19011,0.178387 0.28516,0.419924 0.28516,0.72461 0,0.313803 -0.0977,0.557943 -0.29297,0.732422 -0.19531,0.173177 -0.4707,0.259765 -0.82617,0.259765 -0.1224,0 -0.2474,-0.01042 -0.375,-0.03125 -0.1263,-0.02083 -0.25716,-0.05208 -0.39258,-0.09375 l 0,-0.396484 c 0.11719,0.0638 0.23828,0.111328 0.36328,0.142578 0.125,0.03125 0.25716,0.04687 0.39649,0.04687 0.22526,0 0.40364,-0.05924 0.53515,-0.177734 0.13151,-0.118489 0.19727,-0.279296 0.19727,-0.482422 0,-0.203124 -0.0658,-0.363931 -0.19727,-0.482422 -0.13151,-0.118488 -0.30989,-0.177733 -0.53515,-0.177734 -0.10547,1e-6 -0.21094,0.01172 -0.31641,0.03516 -0.10417,0.02344 -0.21094,0.0599 -0.32031,0.109375 l 0,-1.464844 m -2.21094,7.383985 1.37695,0 0,0.332031 -1.851559,0 0,-0.332031 c 0.149739,-0.154948 0.353519,-0.36263 0.611329,-0.623047 0.25911,-0.261718 0.42187,-0.430337 0.48828,-0.50586 0.1263,-0.141925 0.21419,-0.261717 0.26367,-0.359375 0.0508,-0.09896 0.0762,-0.195961 0.0762,-0.291015 0,-0.154946 -0.0547,-0.281248 -0.16406,-0.378906 -0.10807,-0.09765 -0.24935,-0.146482 -0.42383,-0.146485 -0.1237,3e-6 -0.25455,0.02149 -0.39257,0.06445 -0.13672,0.04297 -0.283208,0.108076 -0.439458,0.195313 l 0,-0.398438 c 0.158854,-0.0638 0.307288,-0.111976 0.445308,-0.144531 0.13802,-0.03255 0.26433,-0.04883 0.37891,-0.04883 0.30208,3e-6 0.54297,0.07552 0.72266,0.226562 0.17968,0.151045 0.26953,0.352867 0.26953,0.605469 0,0.119794 -0.0228,0.233726 -0.0684,0.341797 -0.0443,0.106773 -0.12565,0.233074 -0.24414,0.378906 -0.0326,0.03776 -0.13607,0.147137 -0.31055,0.328125 -0.17448,0.179689 -0.42057,0.431642 -0.73828,0.75586 m 2.54688,0 1.37695,0 0,0.332031 -1.85156,0 0,-0.332031 c 0.14974,-0.154948 0.35351,-0.36263 0.61132,-0.623047 0.25912,-0.261718 0.42188,-0.430337 0.48829,-0.50586 0.1263,-0.141925 0.21419,-0.261717 0.26367,-0.359375 0.0508,-0.09896 0.0762,-0.195961 0.0762,-0.291015 0,-0.154946 -0.0547,-0.281248 -0.16406,-0.378906 -0.10808,-0.09765 -0.24935,-0.146482 -0.42383,-0.146485 -0.1237,3e-6 -0.25456,0.02149 -0.39258,0.06445 -0.13672,0.04297 -0.2832,0.108076 -0.43945,0.195313 l 0,-0.398438 c 0.15885,-0.0638 0.30729,-0.111976 0.44531,-0.144531 0.13802,-0.03255 0.26432,-0.04883 0.37891,-0.04883 0.30208,3e-6 0.54296,0.07552 0.72265,0.226562 0.17969,0.151045 0.26953,0.352867 0.26953,0.605469 0,0.119794 -0.0228,0.233726 -0.0684,0.341797 -0.0443,0.106773 -0.12565,0.233074 -0.24414,0.378906 -0.0326,0.03776 -0.13607,0.147137 -0.31054,0.328125 -0.17448,0.179689 -0.42058,0.431642 -0.73828,0.75586 m -2.54688,4.8 1.37695,0 0,0.332031 -1.851559,0 0,-0.332031 c 0.149739,-0.154948 0.353519,-0.36263 0.611329,-0.623047 0.25911,-0.261718 0.42187,-0.430337 0.48828,-0.505859 0.1263,-0.141926 0.21419,-0.261717 0.26367,-0.359375 0.0508,-0.09896 0.0762,-0.195962 0.0762,-0.291016 0,-0.154946 -0.0547,-0.281248 -0.16406,-0.378906 -0.10807,-0.09765 -0.24935,-0.146482 -0.42383,-0.146485 -0.1237,3e-6 -0.25455,0.02149 -0.39257,0.06445 -0.13672,0.04297 -0.283208,0.108076 -0.439458,0.195313 l 0,-0.398438 c 0.158854,-0.0638 0.307288,-0.111976 0.445308,-0.144531 0.13802,-0.03255 0.26433,-0.04883 0.37891,-0.04883 0.30208,3e-6 0.54297,0.07552 0.72266,0.226563 0.17968,0.151044 0.26953,0.352867 0.26953,0.605468 0,0.119794 -0.0228,0.233726 -0.0684,0.341797 -0.0443,0.106773 -0.12565,0.233075 -0.24414,0.378906 -0.0326,0.03776 -0.13607,0.147137 -0.31055,0.328125 -0.17448,0.179689 -0.42057,0.431642 -0.73828,0.75586 m 2.21875,0.271484 0,-0.359375 c 0.099,0.04688 0.19922,0.08268 0.30078,0.107422 0.10156,0.02474 0.20117,0.03711 0.29883,0.03711 0.26042,1e-6 0.45898,-0.08724 0.5957,-0.261718 0.13802,-0.175781 0.2168,-0.442057 0.23633,-0.798828 -0.0755,0.11198 -0.17122,0.197917 -0.28711,0.257812 -0.11589,0.0599 -0.24414,0.08984 -0.38476,0.08984 -0.29167,10e-7 -0.52279,-0.08789 -0.69336,-0.263672 -0.16927,-0.177082 -0.25391,-0.418618 -0.25391,-0.724609 0,-0.299477 0.0885,-0.539711 0.26563,-0.720704 0.17708,-0.180986 0.41275,-0.271481 0.70703,-0.271484 0.33723,3e-6 0.5944,0.12956 0.77148,0.388672 0.17838,0.257815 0.26758,0.632814 0.26758,1.125 0,0.459636 -0.10938,0.826823 -0.32813,1.101562 -0.21745,0.273438 -0.51041,0.410157 -0.8789,0.410157 -0.099,0 -0.19922,-0.0098 -0.30078,-0.0293 -0.10157,-0.01953 -0.20704,-0.04883 -0.31641,-0.08789 m 0.78516,-1.236328 c 0.17708,1e-6 0.31705,-0.06055 0.41992,-0.181641 0.10416,-0.121092 0.15625,-0.287107 0.15625,-0.498046 0,-0.209634 -0.0521,-0.374998 -0.15625,-0.496094 -0.10287,-0.122393 -0.24284,-0.183591 -0.41992,-0.183594 -0.17709,3e-6 -0.31771,0.0612 -0.42188,0.183594 -0.10286,0.121096 -0.1543,0.28646 -0.1543,0.496094 0,0.210939 0.0514,0.376954 0.1543,0.498046 0.10417,0.121096 0.24479,0.181642 0.42188,0.181641" />
    <path
       style="font-size:4px;font-style:normal;font-variant:normal;font-weight:normal;font-stretch:normal;text-align:center;line-height:120.00000477%;writing-mode:lr-tb;text-anchor:middle;fill:#ffffff;fill-opacity:1;stroke:none;font-family:Sans;-inkscape-font-specification:Sans"
       id="text2498"
       inkscape:connector-curvature="0"
       d="m 109.20845,20.481327 1.37695,0 0,0.332031 -1.85156,0 0,-0.332031 c 0.14974,-0.154947 0.35352,-0.362629 0.61133,-0.623047 0.25911,-0.261717 0.42187,-0.430337 0.48828,-0.505859 0.1263,-0.141926 0.21419,-0.261717 0.26367,-0.359375 0.0508,-0.09896 0.0762,-0.195962 0.0762,-0.291016 0,-0.154945 -0.0547,-0.281247 -0.16406,-0.378906 -0.10807,-0.09765 -0.24935,-0.146482 -0.42383,-0.146484 -0.1237,2e-6 -0.25455,0.02149 -0.39257,0.06445 -0.13672,0.04297 -0.28321,0.108075 -0.43946,0.195312 l 0,-0.398437 c 0.15886,-0.0638 0.30729,-0.111977 0.44531,-0.144532 0.13802,-0.03255 0.26433,-0.04883 0.37891,-0.04883 0.30208,3e-6 0.54297,0.07552 0.72266,0.226563 0.17968,0.151044 0.26953,0.352867 0.26953,0.605469 0,0.119793 -0.0228,0.233725 -0.0684,0.341796 -0.0443,0.106773 -0.12565,0.233075 -0.24414,0.378907 -0.0326,0.03776 -0.13607,0.147136 -0.31055,0.328125 -0.17448,0.179688 -0.42057,0.431641 -0.73828,0.755859 m -0.32812,5.071485 0,-0.359375 c 0.099,0.04687 0.19921,0.08268 0.30078,0.107421 0.10156,0.02474 0.20117,0.03711 0.29882,0.03711 0.26042,0 0.45899,-0.08724 0.59571,-0.261719 0.13802,-0.17578 0.21679,-0.442056 0.23633,-0.798828 -0.0755,0.11198 -0.17123,0.197918 -0.28711,0.257812 -0.11589,0.0599 -0.24415,0.08984 -0.38477,0.08984 -0.29167,1e-6 -0.52279,-0.08789 -0.69336,-0.263672 -0.16927,-0.177082 -0.2539,-0.418618 -0.2539,-0.724609 0,-0.299477 0.0885,-0.539711 0.26562,-0.720703 0.17708,-0.180987 0.41276,-0.271482 0.70703,-0.271485 0.33724,3e-6 0.5944,0.129561 0.77149,0.388672 0.17838,0.257815 0.26757,0.632815 0.26757,1.125 0,0.459637 -0.10937,0.826824 -0.32812,1.101563 -0.21745,0.273437 -0.51042,0.410156 -0.87891,0.410156 -0.099,0 -0.19922,-0.0098 -0.30078,-0.0293 -0.10156,-0.01953 -0.20703,-0.04883 -0.3164,-0.08789 m 0.78515,-1.236329 c 0.17708,2e-6 0.31706,-0.06055 0.41992,-0.18164 0.10417,-0.121092 0.15625,-0.287108 0.15625,-0.498047 0,-0.209633 -0.0521,-0.374998 -0.15625,-0.496094 -0.10286,-0.122393 -0.24284,-0.183591 -0.41992,-0.183594 -0.17708,3e-6 -0.31771,0.0612 -0.42187,0.183594 -0.10287,0.121096 -0.1543,0.286461 -0.1543,0.496094 0,0.210939 0.0514,0.376955 0.1543,0.498047 0.10416,0.121095 0.24479,0.181642 0.42187,0.18164 m -2.00195,5.764844 0.64453,0 0,-2.224609 -0.70117,0.140625 0,-0.359375 0.69726,-0.140625 0.39453,0 0,2.583984 0.64454,0 0,0.332032 -1.67969,0 0,-0.332032 m 3.37109,-1.283203 c -0.17708,2e-6 -0.31771,0.06055 -0.42187,0.181641 -0.10287,0.121095 -0.1543,0.28711 -0.1543,0.498047 0,0.209636 0.0514,0.375651 0.1543,0.498047 0.10416,0.121094 0.24479,0.181641 0.42187,0.18164 0.17708,1e-6 0.31706,-0.06055 0.41992,-0.18164 0.10417,-0.122396 0.15625,-0.288411 0.15625,-0.498047 0,-0.210937 -0.0521,-0.376952 -0.15625,-0.498047 -0.10286,-0.121092 -0.24284,-0.181639 -0.41992,-0.181641 m 0.78321,-1.236328 0,0.359375 c -0.099,-0.04687 -0.19923,-0.08268 -0.30079,-0.107422 -0.10026,-0.02474 -0.19987,-0.03711 -0.29882,-0.03711 -0.26042,3e-6 -0.45964,0.08789 -0.59766,0.263672 -0.13672,0.175783 -0.21484,0.441408 -0.23438,0.796875 0.0768,-0.11328 0.17318,-0.199868 0.28907,-0.259766 0.11588,-0.0612 0.24349,-0.0918 0.38281,-0.0918 0.29297,2e-6 0.52409,0.0892 0.69336,0.267578 0.17057,0.177085 0.25586,0.418621 0.25586,0.72461 0,0.29948 -0.0885,0.539714 -0.26563,0.720703 -0.17708,0.18099 -0.41276,0.271484 -0.70703,0.271484 -0.33724,0 -0.59505,-0.128906 -0.77344,-0.386718 -0.17838,-0.259114 -0.26757,-0.634114 -0.26757,-1.125 0,-0.460936 0.10937,-0.828123 0.32812,-1.101563 0.21875,-0.274737 0.51237,-0.412106 0.88086,-0.412109 0.099,3e-6 0.19857,0.0098 0.29883,0.0293 0.10156,0.01953 0.20703,0.04883 0.31641,0.08789 m -3.88282,7.319532 1.37696,0 0,0.332031 -1.85157,0 0,-0.332031 c 0.14974,-0.154948 0.35352,-0.36263 0.61133,-0.623047 0.25911,-0.261718 0.42188,-0.430337 0.48828,-0.50586 0.1263,-0.141925 0.21419,-0.261717 0.26367,-0.359375 0.0508,-0.09896 0.0762,-0.195961 0.0762,-0.291015 -1e-5,-0.154946 -0.0547,-0.281248 -0.16407,-0.378906 -0.10807,-0.09765 -0.24935,-0.146482 -0.42382,-0.146485 -0.1237,3e-6 -0.25456,0.02149 -0.39258,0.06445 -0.13672,0.04297 -0.28321,0.108076 -0.43946,0.195313 l 0,-0.398438 c 0.15886,-0.0638 0.3073,-0.111976 0.44532,-0.144531 0.13802,-0.03255 0.26432,-0.04883 0.3789,-0.04883 0.30209,3e-6 0.54297,0.07552 0.72266,0.226562 0.17969,0.151045 0.26953,0.352867 0.26953,0.605469 0,0.119794 -0.0228,0.233726 -0.0684,0.341797 -0.0443,0.106773 -0.12565,0.233074 -0.24414,0.378906 -0.0326,0.03776 -0.13607,0.147137 -0.31055,0.328125 -0.17448,0.179689 -0.42057,0.431642 -0.73828,0.75586 m 3.40235,-1.240235 c 0.1888,0.04037 0.33593,0.124351 0.4414,0.251953 0.10677,0.127606 0.16016,0.285158 0.16016,0.472657 0,0.287761 -0.099,0.510417 -0.29688,0.667968 -0.19791,0.157552 -0.47916,0.236328 -0.84375,0.236329 -0.12239,-10e-7 -0.24869,-0.01237 -0.3789,-0.03711 -0.12891,-0.02344 -0.26237,-0.05924 -0.40039,-0.107422 l 0,-0.380859 c 0.10937,0.0638 0.22916,0.111979 0.35937,0.144531 0.13021,0.03255 0.26628,0.04883 0.40821,0.04883 0.24739,10e-7 0.43554,-0.04883 0.56445,-0.146484 0.13021,-0.09766 0.19531,-0.239583 0.19531,-0.425781 0,-0.171874 -0.0606,-0.305989 -0.18164,-0.402344 -0.11979,-0.09765 -0.28711,-0.146483 -0.50195,-0.146484 l -0.33985,0 0,-0.324219 0.35547,0 c 0.19401,10e-7 0.34245,-0.03841 0.44531,-0.115235 0.10287,-0.07812 0.1543,-0.190102 0.1543,-0.335937 0,-0.149737 -0.0534,-0.264321 -0.16015,-0.34375 -0.10547,-0.08073 -0.25717,-0.121091 -0.45508,-0.121094 -0.10808,3e-6 -0.22396,0.01172 -0.34766,0.03516 -0.1237,0.02344 -0.25977,0.0599 -0.4082,0.109375 l 0,-0.351562 c 0.14974,-0.04166 0.28971,-0.07291 0.41992,-0.09375 0.13151,-0.02083 0.25521,-0.03125 0.37109,-0.03125 0.29948,3e-6 0.53646,0.06836 0.71094,0.205078 0.17448,0.135419 0.26172,0.319013 0.26172,0.550781 0,0.161461 -0.0462,0.298179 -0.13867,0.410157 -0.0925,0.110678 -0.22396,0.187501 -0.39453,0.230468 m -2.54688,4.8 c 0.1888,0.04037 0.33594,0.124351 0.44141,0.251954 0.10677,0.127605 0.16015,0.285157 0.16015,0.472656 0,0.287761 -0.099,0.510417 -0.29687,0.667969 -0.19792,0.157552 -0.47917,0.236328 -0.84375,0.236328 -0.1224,0 -0.2487,-0.01237 -0.37891,-0.03711 -0.1289,-0.02344 -0.26237,-0.05924 -0.40039,-0.107422 l 0,-0.380859 c 0.10938,0.0638 0.22917,0.11198 0.35938,0.144531 0.1302,0.03255 0.26627,0.04883 0.4082,0.04883 0.24739,10e-7 0.43555,-0.04883 0.56445,-0.146484 0.13021,-0.09766 0.19531,-0.239583 0.19532,-0.425781 -1e-5,-0.171874 -0.0606,-0.305989 -0.18164,-0.402344 -0.1198,-0.09766 -0.28712,-0.146483 -0.50196,-0.146484 l -0.33984,0 0,-0.324219 0.35547,0 c 0.19401,2e-6 0.34244,-0.03841 0.44531,-0.115234 0.10286,-0.07812 0.15429,-0.190103 0.1543,-0.335938 -10e-6,-0.149737 -0.0534,-0.26432 -0.16016,-0.34375 -0.10547,-0.08073 -0.25716,-0.121091 -0.45508,-0.121094 -0.10807,3e-6 -0.22396,0.01172 -0.34765,0.03516 -0.1237,0.02344 -0.25977,0.0599 -0.40821,0.109375 l 0,-0.351563 c 0.14974,-0.04166 0.28972,-0.07291 0.41992,-0.09375 0.13151,-0.02083 0.25521,-0.03125 0.3711,-0.03125 0.29948,3e-6 0.53646,0.06836 0.71094,0.205078 0.17447,0.135419 0.26171,0.319013 0.26171,0.550781 0,0.161461 -0.0462,0.298179 -0.13867,0.410157 -0.0924,0.110678 -0.22396,0.187501 -0.39453,0.230468 m 2.19531,-1.083984 c -0.20312,3e-6 -0.35612,0.100263 -0.45898,0.300781 -0.10156,0.199221 -0.15234,0.499351 -0.15234,0.900391 0,0.399741 0.0508,0.69987 0.15234,0.900391 0.10286,0.199219 0.25586,0.298828 0.45898,0.298828 0.20443,0 0.35742,-0.09961 0.45899,-0.298828 0.10286,-0.200521 0.15429,-0.50065 0.1543,-0.900391 -1e-5,-0.40104 -0.0514,-0.70117 -0.1543,-0.900391 -0.10157,-0.200518 -0.25456,-0.300778 -0.45899,-0.300781 m 0,-0.3125 c 0.32683,3e-6 0.57617,0.12956 0.74805,0.388672 0.17318,0.257815 0.25976,0.632814 0.25977,1.125 -10e-6,0.490886 -0.0866,0.865886 -0.25977,1.125 -0.17188,0.257813 -0.42122,0.386719 -0.74805,0.386719 -0.32682,0 -0.57682,-0.128906 -0.75,-0.386719 -0.17187,-0.259114 -0.25781,-0.634114 -0.25781,-1.125 0,-0.492186 0.0859,-0.867185 0.25781,-1.125 0.17318,-0.259112 0.42318,-0.388669 0.75,-0.388672" />
  </g>
  <g
     id="g3683"
     transform="translate(0,4)">
    <path
       style="font-size:18.63121033px;font-style:normal;font-variant:normal;font-weight:bold;font-stretch:normal;text-align:start;line-height:125%;writing-mode:lr-tb;text-anchor:start;fill:#ffffff;fill-opacity:1;stroke:none;font-family:Liberation Sans;-inkscape-font-specification:Abandoned Bitplane Bold"
       id="path3933"
       inkscape:connector-curvature="0"
       d="m 15.789525,26.170333 c -0.399853,0 -0.756324,-0.04149 -1.069411,-0.124481 -0.313094,-0.08299 -0.58469,-0.215014 -0.814792,-0.396078 -0.230103,-0.181065 -0.420598,-0.41494 -0.571485,-0.701625 C 13.186723,24.657692 13.075443,24.30688 13,23.895711 l 1.657872,-0.243306 c 0.03773,0.222562 0.09053,0.41117 0.158431,0.565827 0.0679,0.150889 0.148999,0.27537 0.243305,0.373445 0.09807,0.09431 0.209353,0.164091 0.333838,0.209357 0.12448,0.04151 0.260278,0.06224 0.407395,0.06224 0.331948,1e-6 0.582798,-0.111278 0.752548,-0.333838 0.173517,-0.222556 0.260277,-0.541305 0.260282,-0.956247 l 0,-4.181456 -1.589973,0 0,-1.30706 3.253501,0 0,5.448909 c -5e-6,0.403624 -0.05847,0.769525 -0.175405,1.097703 -0.116944,0.324408 -0.290463,0.601662 -0.520561,0.831765 -0.226334,0.226331 -0.507362,0.401736 -0.843082,0.526218 -0.331954,0.12071 -0.714829,0.181065 -1.148626,0.181065" />
    <path
       style="font-size:18.63121033px;font-style:normal;font-variant:normal;font-weight:bold;font-stretch:normal;text-align:start;line-height:125%;writing-mode:lr-tb;text-anchor:start;fill:#ffffff;fill-opacity:1;stroke:none;font-family:Liberation Sans;-inkscape-font-specification:Abandoned Bitplane Bold"
       id="path3935"
       inkscape:connector-curvature="0"
       d="m 25.684736,26.059605 -0.692049,-1.993102 -2.973046,0 -0.692049,1.993102 -1.633237,0 2.845708,-7.800782 1.926666,0 2.834634,7.800782 -1.616627,0 m -1.827011,-5.464423 c -0.04429,-0.129177 -0.08859,-0.258359 -0.132873,-0.387548 -0.0406,-0.132867 -0.07751,-0.252822 -0.110729,-0.359866 -0.02953,-0.110721 -0.05537,-0.201149 -0.07751,-0.271283 -0.01846,-0.07012 -0.02953,-0.108876 -0.03322,-0.116264 -0.0037,0.01108 -0.01477,0.05168 -0.03322,0.1218 -0.01845,0.07013 -0.04429,0.158717 -0.07751,0.265747 -0.02953,0.107044 -0.06644,0.226999 -0.110728,0.359866 -0.0406,0.129189 -0.08305,0.258371 -0.127337,0.387548 l -0.769559,2.242241 2.242241,0 -0.76956,-2.242241" />
    <path
       style="font-size:18.63121033px;font-style:normal;font-variant:normal;font-weight:bold;font-stretch:normal;text-align:start;line-height:125%;writing-mode:lr-tb;text-anchor:start;fill:#ffffff;fill-opacity:1;stroke:none;font-family:Liberation Sans;-inkscape-font-specification:Abandoned Bitplane Bold"
       id="path3937"
       inkscape:connector-curvature="0"
       d="m 33.418701,26.059605 -3.724258,-6.00699 c 0.02021,0.162407 0.03841,0.324808 0.0546,0.487203 0.01618,0.140261 0.02831,0.291589 0.03639,0.453984 0.01213,0.162407 0.0182,0.317426 0.0182,0.465058 l 0,4.600745 -1.58918,0 0,-7.800782 2.044098,0 3.778849,6.056817 C 34.01718,24.160623 33.99897,23.998222 33.9828,23.828438 33.96661,23.684494 33.95246,23.522093 33.94034,23.341235 33.93224,23.160382 33.9282,22.977681 33.9282,22.793132 l 0,-4.534309 1.589179,0 0,7.800782 -2.098686,0" />
  </g>
  <path
     style="font-size:36px;font-style:normal;font-variant:normal;font-weight:bold;font-stretch:normal;text-align:start;line-height:125%;writing-mode:lr-tb;text-anchor:start;opacity:0.8;fill:#000000;fill-opacity:1;stroke:none;font-family:Liberation Sans;-inkscape-font-specification:Abandoned Bitplane Bold"
     id="path3947"
     inkscape:connector-curvature="0"
     d="m 46.151724,63 c -2.5e-5,2.78622 -0.2552,5.13794 -0.765516,7.055173 -0.510367,1.903453 -1.220709,3.44828 -2.131033,4.634482 -0.896575,1.172416 -1.965534,2.02069 -3.2069,2.544828 C 38.820675,77.744828 37.47585,77.999999 36.013791,78 34.551716,77.999999 33.206883,77.744828 31.979308,77.234483 30.751717,76.724138 29.696542,75.88276 28.813792,74.710345 27.931033,73.524142 27.241375,71.979316 26.744825,70.075862 26.248275,68.15863 26,65.800011 26,63 c 0,-2.937914 0.241375,-5.365498 0.724142,-7.282759 0.496541,-1.93101 1.1931,-3.468939 2.08965,-4.613793 0.89655,-1.1448 1.965508,-1.944798 3.206899,-2.399999 C 33.27585,48.234512 34.662058,48.000031 36.179308,48 c 1.420675,3.1e-5 2.737917,0.234512 3.951725,0.703449 1.227567,0.455201 2.282742,1.255199 3.165517,2.399999 0.896533,1.144854 1.593083,2.682783 2.089658,4.613793 0.510316,1.917261 0.765491,4.344845 0.765516,7.282759 m -5.834483,0 c -1.6e-5,-2.055156 -0.07592,-3.751705 -0.227583,-5.089655 -0.151742,-1.351703 -0.393125,-2.420668 -0.724142,-3.206896 -0.33105,-0.799977 -0.765533,-1.358597 -1.30345,-1.675862 -0.52415,-0.317216 -1.165525,-0.475838 -1.924133,-0.475862 -0.813808,2.4e-5 -1.496567,0.165542 -2.048275,0.496552 -0.551733,0.317265 -1.000017,0.875885 -1.344833,1.675861 -0.331042,0.800022 -0.572417,1.875883 -0.724134,3.227587 C 31.88275,59.289674 31.813783,60.97243 31.813792,63 c -9e-6,2.000013 0.07583,3.668977 0.227583,5.006896 0.151716,1.337939 0.3931,2.413801 0.724141,3.227587 0.331025,0.800005 0.765509,1.365521 1.30345,1.696551 0.537917,0.331039 1.199992,0.496557 1.986209,0.496552 0.758608,5e-6 1.406883,-0.165513 1.944825,-0.496552 0.537916,-0.33103 0.979291,-0.896546 1.324133,-1.696551 0.344817,-0.813786 0.593092,-1.889648 0.744833,-3.227587 0.1655,-1.337919 0.248259,-3.006883 0.248275,-5.006896" />
  <path
     style="font-size:36px;font-style:normal;font-variant:normal;font-weight:bold;font-stretch:normal;text-align:start;line-height:125%;writing-mode:lr-tb;text-anchor:start;opacity:0.8;fill:#000000;fill-opacity:1;stroke:none;font-family:Liberation Sans;-inkscape-font-specification:Abandoned Bitplane Bold"
     id="path3949"
     inkscape:connector-curvature="0"
     d="m 53.28589,78 0,-4.449965 5.715642,0 0,-19.603737 -5.481425,4.492547 0,-5.563047 5.8008,-4.875798 5.663591,0 0,25.550035 5.162059,0 0,4.449965 -16.860659,0" />
  <g
     style="font-size:4.20911837px;font-style:normal;font-variant:normal;font-weight:normal;font-stretch:normal;text-align:start;line-height:125%;writing-mode:lr-tb;text-anchor:start;fill:#4d4d4d;fill-opacity:1;stroke:none;font-family:Liberation Sans;-inkscape-font-specification:Liberation Sans"
     id="text3690">
    <path
       id="path3695"
       inkscape:connector-curvature="0"
       d="m 14,41.958897 0,-2.895824 0.392549,0 0,2.575207 1.463326,0 0,0.320617 -1.855875,0" />
    <path
       id="path3697"
       inkscape:connector-curvature="0"
       d="m 17.500062,42.000001 c -0.158939,0 -0.309656,-0.02124 -0.452151,-0.06371 -0.142497,-0.04248 -0.267866,-0.108242 -0.376108,-0.197302 -0.106872,-0.09043 -0.191822,-0.204153 -0.254849,-0.341169 -0.06303,-0.138385 -0.09454,-0.302119 -0.09454,-0.491201 l 0,-1.843544 0.392549,0 0,1.81066 c -1e-6,0.146608 0.01918,0.271292 0.05755,0.374053 0.03973,0.101392 0.09454,0.184286 0.164418,0.248683 0.06988,0.0644 0.152087,0.111668 0.246628,0.141811 0.09591,0.02877 0.200727,0.04316 0.314451,0.04316 0.112351,0 0.218538,-0.01507 0.318561,-0.04521 0.10002,-0.03014 0.18771,-0.0781 0.26307,-0.143866 0.07536,-0.06577 0.134273,-0.151402 0.17675,-0.256905 0.04384,-0.106871 0.06576,-0.23635 0.06577,-0.388439 l 0,-1.783942 0.390494,0 0,1.80655 c -3e-6,0.193193 -0.0322,0.361037 -0.0966,0.503532 -0.06303,0.141127 -0.149349,0.258275 -0.258959,0.351445 -0.109615,0.09317 -0.238409,0.162364 -0.386384,0.207579 -0.146609,0.04521 -0.303491,0.06782 -0.470649,0.06782" />
    <path
       id="path3699"
       inkscape:connector-curvature="0"
       d="m 21.263195,41.958897 -1.549646,-2.466281 c 0.0027,0.06714 0.0062,0.133593 0.01028,0.199358 0.0027,0.05618 0.0048,0.11578 0.0062,0.178805 0.0027,0.06166 0.0041,0.116466 0.0041,0.164419 l 0,1.923699 -0.349389,0 0,-2.895824 0.456262,0 1.566088,2.482722 c -0.0041,-0.06714 -0.0082,-0.134275 -0.01233,-0.201413 -0.0027,-0.05755 -0.0055,-0.119888 -0.0082,-0.187026 -0.0027,-0.06851 -0.0041,-0.13359 -0.0041,-0.195248 l 0,-1.899035 0.3535,0 0,2.895824 -0.472704,0" />
    <path
       id="path3701"
       inkscape:connector-curvature="0"
       d="m 24.919455,40.481184 c -3e-6,0.241148 -0.03631,0.454207 -0.108927,0.639177 -0.07262,0.183602 -0.171957,0.337744 -0.298009,0.462428 -0.126057,0.123314 -0.275403,0.21717 -0.448041,0.281567 -0.171271,0.06303 -0.356242,0.09454 -0.554913,0.09454 l -1.083108,0 0,-2.895824 0.957739,0 c 0.223334,2e-6 0.428857,0.02809 0.61657,0.08426 0.189079,0.05481 0.351443,0.140444 0.48709,0.256904 0.135643,0.115096 0.241145,0.261702 0.316506,0.43982 0.07673,0.178122 0.11509,0.390496 0.115093,0.637123 m -0.394605,0 c -2e-6,-0.195931 -0.02809,-0.36309 -0.08426,-0.501477 -0.05618,-0.139754 -0.134963,-0.254162 -0.236352,-0.343224 -0.101394,-0.08906 -0.222652,-0.15414 -0.363776,-0.195247 -0.141128,-0.04247 -0.295955,-0.06371 -0.464483,-0.06371 l -0.556968,0 0,2.266923 0.645343,0 c 0.152086,0 0.292526,-0.02466 0.421323,-0.07399 0.130163,-0.04932 0.242515,-0.122628 0.337058,-0.21991 0.09454,-0.09728 0.168527,-0.218539 0.221965,-0.363776 0.05343,-0.145235 0.08015,-0.313764 0.08015,-0.505587" />
    <path
       id="path3703"
       inkscape:connector-curvature="0"
       d="m 25.511363,41.958897 0,-2.895824 0.39255,0 0,2.895824 -0.39255,0" />
  </g>
  <path
     style="opacity:0.3;fill:#ffffff;fill-opacity:1;stroke:none"
     id="path3739"
     inkscape:connector-curvature="0"
     d="M 24.03125,12.40625 C 24.001249,12.602572 24,12.794487 24,13 c 0,2.209139 1.79086,4 4,4 2.20914,0 4,-1.790861 4,-4 0,-0.205513 -0.0012,-0.397428 -0.03125,-0.59375 C 31.764726,14.424122 30.071673,16 28,16 25.928327,16 24.235274,14.424122 24.03125,12.40625 z m 40,0 C 64.001249,12.602572 64,12.794487 64,13 c 0,2.209139 1.79086,4 4,4 2.20914,0 4,-1.790861 4,-4 0,-0.205513 -0.0012,-0.397428 -0.03125,-0.59375 C 71.764726,14.424122 70.071673,16 68,16 65.928327,16 64.235274,14.424122 64.03125,12.40625 z" />
</svg>
